HIERARCHY
ROOT RootJoint
{
    OFFSET   0.000000   0.000000   0.000000
    CHANNELS 6 Xposition Yposition Zposition Xrotation Yrotation Zrotation
    JOINT pelvis_lowerback
    {
        OFFSET   0.000000   0.093605   0.000000
        CHANNELS 3 Xrotation Yrotation Zrotation
        JOINT lowerback_torso
        {
            OFFSET   0.000000   0.100000   0.000000
            CHANNELS 3 Xrotation Yrotation Zrotation
            JOINT torso_head
            {
                OFFSET   0.000000   0.282350   0.000000
                CHANNELS 3 Xrotation Yrotation Zrotation
                End Site
                {
                    OFFSET   0.000000   0.192650   0.000000
                }
            }
            JOINT rTorso_Clavicle
            {
                OFFSET  -0.001000   0.157500   0.000000
                CHANNELS 3 Xrotation Yrotation Zrotation
                JOINT rShoulder
                {
                    OFFSET  -0.117647   0.000000   0.000000
                    CHANNELS 3 Xrotation Yrotation Zrotation
                    JOINT rElbow
                    {
                        OFFSET  -0.245000   0.000000   0.000000
                        CHANNELS 3 Xrotation Yrotation Zrotation
                        JOINT rWrist
                        {
                            OFFSET  -0.240000   0.000000   0.000000
                            CHANNELS 3 Xrotation Yrotation Zrotation
                            End Site
                            {
                                OFFSET  -0.116353  -0.002500   0.000000
                            }
                        }
                    }
                }
            }
            JOINT lTorso_Clavicle
            {
                OFFSET   0.001000   0.157500   0.000000
                CHANNELS 3 Xrotation Yrotation Zrotation
                JOINT lShoulder
                {
                    OFFSET   0.117647   0.000000   0.000000
                    CHANNELS 3 Xrotation Yrotation Zrotation
                    JOINT lElbow
                    {
                        OFFSET   0.245000   0.000000   0.000000
                        CHANNELS 3 Xrotation Yrotation Zrotation
                        JOINT lWrist
                        {
                            OFFSET   0.240000   0.000000   0.000000
                            CHANNELS 3 Xrotation Yrotation Zrotation
                            End Site
                            {
                                OFFSET   0.116353  -0.002500   0.000000
                            }
                        }
                    }
                }
            }
        }
    }
    JOINT rHip
    {
        OFFSET  -0.100000  -0.051395   0.000000
        CHANNELS 3 Xrotation Yrotation Zrotation
        JOINT rKnee
        {
            OFFSET   0.000000  -0.410000   0.000000
            CHANNELS 3 Xrotation Yrotation Zrotation
            JOINT rAnkle
            {
                OFFSET   0.000000  -0.390000   0.000000
                CHANNELS 3 Xrotation Yrotation Zrotation
                JOINT rToeJoint
                {
                    OFFSET   0.000000  -0.050000   0.130000
                    CHANNELS 3 Xrotation Yrotation Zrotation
                    End Site
                    {
                        OFFSET  -0.010000   0.002000   0.060000
                    }
                }
            }
        }
    }
    JOINT lHip
    {
        OFFSET   0.100000  -0.051395   0.000000
        CHANNELS 3 Xrotation Yrotation Zrotation
        JOINT lKnee
        {
            OFFSET   0.000000  -0.410000   0.000000
            CHANNELS 3 Xrotation Yrotation Zrotation
            JOINT lAnkle
            {
                OFFSET   0.000000  -0.390000   0.000000
                CHANNELS 3 Xrotation Yrotation Zrotation
                JOINT lToeJoint
                {
                    OFFSET   0.000000  -0.050000   0.130000
                    CHANNELS 3 Xrotation Yrotation Zrotation
                    End Site
                    {
                        OFFSET   0.010000   0.002000   0.060000
                    }
                }
            }
        }
    }
}
MOTION
Frames: 10
Frame Time:   0.008333
 -2.429681   0.896239   3.954445  -2.405486   7.708692  -1.540145  25.738167   2.616733  -0.379071  -0.016018  -0.114531   0.112048  -1.940432   1.066833  -1.020787  -3.706430  19.844854   1.751565 -16.202643  17.195300  48.338459  -0.002772  28.680160   0.002422  -5.120261   2.791189  -8.641826  -4.217023 -17.535117  -3.411879 -13.228045 -13.508669 -49.572935  -0.004568 -33.621110  -0.006133  -5.589491  -4.356007  16.594277 -14.538994 -15.951640  -8.626550  32.562841  -0.002193  -0.002809  -8.583826 -14.693700  -0.985362  -8.911620   0.000438   0.000896 -15.884836   5.084580  10.611756  26.682293   0.000225   0.001577  -8.906206   3.016333   0.094419   0.701642  -0.000023   0.000017
 -2.429307   0.896926   3.955998  -2.395091   7.774177  -1.510938  25.226750   2.646710  -0.445523   0.026722  -0.097348   0.130918  -1.904949   1.001674  -0.896058  -3.654548  19.645326   1.919071 -16.063562  17.177434  48.340136  -0.002745  28.955704   0.002463  -5.058156   2.836950  -8.785709  -4.135129 -17.314013  -3.480310 -13.030759 -13.524754 -49.561600  -0.004635 -33.932993  -0.006058  -5.622878  -4.315177  16.718393 -14.178932 -15.873363  -8.576526  32.121347  -0.002143  -0.002861  -8.595235 -14.717240  -1.032703  -8.757598   0.000454   0.000926 -15.578640   4.981773  10.508911  26.307567   0.000239   0.001608  -8.825818   3.123733   0.079023   0.705789  -0.000018   0.000013
 -2.428955   0.897590   3.957510  -2.379734   7.839329  -1.481227  24.729289   2.676432  -0.503970   0.060443  -0.081527   0.150128  -1.870781   0.940525  -0.778593  -3.600857  19.452329   2.076638 -15.929607  17.157175  48.342682  -0.002674  29.213090   0.002462  -4.997237   2.891391  -8.929976  -4.054044 -17.103642  -3.546892 -12.843586 -13.539760 -49.555931  -0.004613 -34.227225  -0.005901  -5.647612  -4.299337  16.825646 -13.834420 -15.798456  -8.529860  31.690693  -0.002075  -0.002874  -8.603113 -14.742625  -1.078778  -8.610219   0.000459   0.000933 -15.284257   4.884458  10.408542  25.936145   0.000243   0.001607  -8.743707   3.223954   0.068121   0.709511  -0.000014   0.000011
 -2.428628   0.898212   3.958964  -2.363833   7.900772  -1.451990  24.253935   2.705127  -0.555015   0.085190  -0.066506   0.169656  -1.839775   0.883719  -0.668558  -3.548886  19.270057   2.222860 -15.803094  17.137074  48.344888  -0.002575  29.452828   0.002423  -4.938974   2.942556  -9.068726  -3.976565 -16.905608  -3.609421 -12.667551 -13.553112 -49.551788  -0.004519 -34.501877  -0.005663  -5.670487  -4.287795  16.925167 -13.509668 -15.728373  -8.487350  31.284125  -0.001976  -0.002821  -8.608356 -14.767215  -1.122285  -8.476011   0.000450   0.000910 -15.004243   4.794101  10.314099  25.580823   0.000241   0.001570  -8.665450   3.317126   0.058747   0.712547  -0.000011   0.000009
 -2.428331   0.898787   3.960358  -2.349075   7.957610  -1.423290  23.802753   2.732420  -0.599712   0.102884  -0.052198   0.189580  -1.811550   0.830870  -0.565485  -3.500014  19.099201   2.358695 -15.684720  17.117937  48.346362  -0.002458  29.676397   0.002355  -4.883226   2.990386  -9.202556  -3.903805 -16.720002  -3.667669 -12.502845 -13.565212 -49.547807  -0.004370 -34.758097  -0.005366  -5.692567  -4.276626  17.020646 -13.204557 -15.662973  -8.448761  30.904331  -0.001853  -0.002712  -8.613021 -14.790555  -1.163182  -8.353869   0.000431   0.000867 -14.738720   4.710393  10.226166  25.245248   0.000236   0.001507  -8.592671   3.404109   0.050087   0.715012  -0.000009   0.000007
 -2.428066   0.899316   3.961688  -2.335861   8.009618  -1.395154  23.375980   2.758158  -0.638804   0.115053  -0.038645   0.209851  -1.785695   0.781667  -0.468944  -3.454552  18.939577   2.485157 -15.574390  17.100036  48.347210  -0.002327  29.885047   0.002267  -4.829746   3.035928  -9.331976  -3.836059 -16.546516  -3.721923 -12.349191 -13.576411 -49.543712  -0.004180 -34.997200  -0.005029  -5.713861  -4.265749  17.113224 -12.918328 -15.601961  -8.413588  30.550875  -0.001714  -0.002564  -8.618342 -14.812540  -1.201569  -8.241920   0.000405   0.000811 -14.487395   4.632941  10.144719  24.929781   0.000229   0.001427  -8.525503   3.485569   0.041916   0.717078  -0.000007   0.000006
 -2.427833   0.899803   3.962954  -2.324124   8.056794  -1.367632  22.973184   2.782255  -0.672841   0.122904  -0.025915   0.230391  -1.761906   0.735843  -0.378531  -3.412396  18.790690   2.603138 -15.471699  17.083426  48.347643  -0.002187  30.079834   0.002164  -4.778371   3.079761  -9.457023  -3.773242 -16.384669  -3.772599 -12.206078 -13.586953 -49.539568  -0.003960 -35.220402  -0.004671  -5.734278  -4.255520  17.203061 -12.650118 -15.545048  -8.381286  30.222385  -0.001567  -0.002391  -8.624971 -14.833137  -1.237560  -8.138518   0.000375   0.000748 -14.249820   4.561371  10.069560  24.633615   0.000221   0.001335  -8.463561   3.562058   0.034196   0.718906  -0.000006   0.000004
 -2.427614   0.900297   3.964279  -2.304662   8.132719  -1.323427  22.531037   2.796005  -0.714401   0.163616  -0.014031   0.258191  -1.710725   0.668751  -0.278985  -3.362631  18.618441   2.778385 -15.359655  17.053514  48.292420  -0.002156  30.313882   0.002216  -4.716622   3.116078  -9.594256  -3.701068 -16.233129  -3.850906 -12.018828 -13.654197 -49.497314  -0.003885 -35.517360  -0.004409  -5.759744  -4.207936  17.295838 -12.364368 -15.478259  -8.358701  29.865513  -0.001507  -0.002396  -8.664550 -14.872192  -1.285190  -7.981546   0.000387   0.000778 -14.001055   4.449341   9.964316  24.310134   0.000227   0.001335  -8.389584   3.658117   0.037621   0.722906  -0.000005   0.000004
 -2.427418   0.900766   3.965582  -2.283994   8.210746  -1.278016  22.101002   2.809422  -0.748938   0.196071  -0.005179   0.286250  -1.661522   0.606129  -0.185447  -3.311066  18.451189   2.945275 -15.251206  17.021920  48.242036  -0.002090  30.532335   0.002226  -4.656308   3.159564  -9.732301  -3.631252 -16.090806  -3.927991 -11.843184 -13.719325 -49.463723  -0.003778 -35.798820  -0.004152  -5.775249  -4.188969  17.367321 -12.089260 -15.414403  -8.339352  29.522549  -0.001440  -0.002378  -8.705677 -14.913322  -1.331980  -7.830405   0.000390   0.000790 -13.760697   4.341851   9.861450  23.993351   0.000228   0.001305  -8.316914   3.745617   0.043286   0.727110  -0.000004   0.000003
 -2.427249   0.901203   3.966847  -2.264303   8.284417  -1.233512  21.689769   2.822276  -0.776967   0.220104   0.002471   0.314478  -1.616586   0.547994  -0.097807  -3.260957  18.293651   3.101423 -15.148629  16.991384  48.195656  -0.002002  30.735757   0.002199  -4.598704   3.200156  -9.864175  -3.565495 -15.958112  -4.001391 -11.679084 -13.780606 -49.434183  -0.003639 -36.062198  -0.003882  -5.788174  -4.177896  17.430610 -11.829416 -15.355213  -8.322264  29.201620  -0.001354  -0.002309  -8.745931 -14.953325  -1.376344  -7.691302   0.000382   0.000775 -13.530928   4.241841   9.765121  23.691368   0.000226   0.001254  -8.248996   3.826604   0.049017   0.731245  -0.000004   0.000002
